<svg xmlns="http://www.w3.org/2000/svg" xmlns:xlink="http://www.w3.org/1999/xlink" viewBox="0 0 298.55 239.61"><defs><style>.cls-1{fill:#1f2c38;}.cls-2{fill:url(#linear-gradient);}.cls-3,.cls-4{fill:none;stroke:#1f2c38;stroke-linecap:round;stroke-linejoin:round;}.cls-3{stroke-width:5px;}.cls-4{stroke-width:4px;}</style><linearGradient id="linear-gradient" x1="-1824.31" y1="-603.09" x2="-1703.17" y2="-628.3" gradientTransform="matrix(0.95, 0.3, -0.3, 0.95, 1612.24, 1205.63)" gradientUnits="userSpaceOnUse"><stop offset="0" stop-color="#83b755"/><stop offset="0.13" stop-color="#70b26d"/><stop offset="0.41" stop-color="#4aa89a"/><stop offset="0.66" stop-color="#2fa1bb"/><stop offset="0.86" stop-color="#1e9dd0"/><stop offset="1" stop-color="#189bd7"/></linearGradient></defs><title>cP18_iconAsset 70@1x</title><g id="Layer_2" data-name="Layer 2"><g id="outlined"><path class="cls-1" d="M56,224.3a3,3,0,0,1-1-5.18l28.78-23.34a3,3,0,1,1,3.78,4.66L58.76,223.78A3,3,0,0,1,56,224.3Z"/><path class="cls-1" d="M99.28,221a3.1,3.1,0,0,1-1.42-1,3,3,0,0,1,.45-4.22l20.26-16.43a3,3,0,1,1,3.78,4.66l-20.27,16.43A3,3,0,0,1,99.28,221Z"/><path class="cls-1" d="M81.82,235.19a3,3,0,0,1-1-5.19l7.22-5.85a3,3,0,1,1,3.78,4.66l-7.22,5.85A3,3,0,0,1,81.82,235.19Z"/><path class="cls-1" d="M37.26,239.46a2.88,2.88,0,0,1-1.41-1,3,3,0,0,1,.44-4.21l7.22-5.86a3,3,0,1,1,3.78,4.66l-7.23,5.86A3,3,0,0,1,37.26,239.46Z"/><path class="cls-1" d="M20.78,138.57a3,3,0,0,1-1-5.19L48.6,110.05a3,3,0,0,1,3.77,4.66L23.59,138A3,3,0,0,1,20.78,138.57Z"/><path class="cls-1" d="M2.08,153.73a3,3,0,0,1-1-5.19l7.22-5.85a3,3,0,1,1,3.78,4.66L4.89,153.2A3,3,0,0,1,2.08,153.73Z"/><path class="cls-1" d="M138.66,189.65c-.53,0-1.07,0-1.6-.08a15,15,0,0,1-10.14-5.48l-.19-.17a3.61,3.61,0,0,1-.43-.44l-.76-.94a2.7,2.7,0,0,1-.3-.45,2.53,2.53,0,0,1-.18-.37,15.84,15.84,0,0,1-2.3-8.31,15,15,0,0,1,.08-1.64c.06-.53.14-1.08.26-1.66a15.8,15.8,0,0,1,4.94-8.55l.13-.12c.16-.14.31-.28.48-.41l25.5-20.69a9,9,0,0,0,3.34-7.94,8.54,8.54,0,0,0-1.75-4.38l-1.05-1-6-5.61L113.4,163a3.12,3.12,0,0,1-.79.66L64.38,185.56a14.92,14.92,0,0,1-8,2.35c-.53,0-1.07,0-1.59-.08a15.22,15.22,0,0,1-11.28-7,15.81,15.81,0,0,1,4.81-21.78l46.32-22.48,1.62-2.17c-24-17.69-33.79-38.9-37.78-53.59-4.37-16.12-3-28.24-2.87-29.57a2.68,2.68,0,0,1,1-1.78A2.52,2.52,0,0,1,58.15,49a2.49,2.49,0,0,1,.47,0,137.14,137.14,0,0,0,20.61,1.43c11.87,0,29.34-1.42,45.19-8.19,13.19-5.65,31.42-8.88,50-8.88a130.53,130.53,0,0,1,24,2.06h.75c.88,0,1.77,0,2.65.12l.14,0a27.36,27.36,0,0,1,10.38,3.22,19,19,0,0,1,0-3.21A18,18,0,0,1,219,23.45l5.66-4.59A18.08,18.08,0,0,1,250,21.52l1.2,1.46a18.11,18.11,0,0,1-2.66,25.42L242.91,53a17.44,17.44,0,0,1-2.44,1.66A41.67,41.67,0,0,0,260.6,43.84l14.34-15.69.12-.11a10.71,10.71,0,0,1,4-2.59,10.32,10.32,0,0,1,4.69-.58,10.51,10.51,0,0,1,6.54,3.24,11.17,11.17,0,0,1-.06,15.21L275.71,59.16h-.18l.09.08a2.13,2.13,0,0,1-.3.3,62.87,62.87,0,0,1-44.19,17.77,66.58,66.58,0,0,1-6.8-.35l-1-.13-.41,0a27.41,27.41,0,0,1-6.36,7.47l-33.63,27.56,1.79,2.21c.29.34.56.69.82,1a32.81,32.81,0,0,1,3.16,5.19,32.36,32.36,0,0,1,3.06,17.57,32.62,32.62,0,0,1-6.25,16.08,33,33,0,0,1-5.56,5.76l-31.16,26.11-.53.45A15.27,15.27,0,0,1,138.66,189.65Zm19.42-44.45L132,166.4a9.7,9.7,0,0,0-2.94,6,9.58,9.58,0,0,0,1.52,6.32l1,1.18c2.25,2.29,4.66,3.45,7.16,3.45h0a9.67,9.67,0,0,0,6.08-2.4L176,154.86a26.26,26.26,0,0,0,7.33-9.44,26.76,26.76,0,0,0,2.24-8.23,26.32,26.32,0,0,0-1.9-12.91,25.62,25.62,0,0,0-3-5.28c-.25-.35-.52-.69-.8-1l-32.47-40-5.84,4.74-2.09,1.73a13.61,13.61,0,0,0-1.57,18.47l9.5,8.92,12.08,11.32.55.52a2.87,2.87,0,0,1,.29.31,15,15,0,0,1,3.34,9,15.45,15.45,0,0,1-.06,2.11,14.94,14.94,0,0,1-5.5,10.17l-.09-.08ZM99.2,140.85a3.09,3.09,0,0,1-.81.76L51.62,164.38a9.5,9.5,0,0,0-2.88,13.13,8.9,8.9,0,0,0,5.61,3.93,9.25,9.25,0,0,0,1.95.22h0a8.83,8.83,0,0,0,4.8-1.42L109,158.5l35.09-41.33-10.63-9.91a2,2,0,0,1-.24-.27,19.49,19.49,0,0,1-3.52-6.48ZM60.58,54.64c-.46,10.9,1.08,47.84,38.81,75.6l29.71-39.3a19.36,19.36,0,0,1,6.43-11.42l.18-.17.36-.32,1.51-1.21L144,72.5l.11-.06,37.58-30.79A28.28,28.28,0,0,1,185.52,39c-3.58-.29-7.3-.43-11.09-.43-17.79,0-35.27,3.11-47.95,8.54-16.79,7.18-34.91,8.69-47.15,8.69A148.61,148.61,0,0,1,60.58,54.64ZM179,107l33.6-27.52a20.78,20.78,0,0,0,3.62-3.85A53.65,53.65,0,0,1,203.64,71a11,11,0,0,1-4.53-14.57,10.77,10.77,0,0,1,9.56-6,9.59,9.59,0,0,1,1.07.06,10.4,10.4,0,0,1,3.84,1.18,27.06,27.06,0,0,0,4.56,1.84A21.05,21.05,0,0,0,201.31,41.8l-.09-.13,0,.12c-.71-.07-1.44-.1-2.16-.1a21,21,0,0,0-13.44,4.8L152.16,73.88Zm46-35.19a60,60,0,0,0,6.14.31A57.72,57.72,0,0,0,271.7,55.76l14.68-16a5.84,5.84,0,0,0,.09-8,5.29,5.29,0,0,0-3.27-1.63,5.15,5.15,0,0,0-.55,0,5.35,5.35,0,0,0-3.84,1.64L264.34,47.52A46.68,46.68,0,0,1,231.63,60.8a48.55,48.55,0,0,1-5.24-.28,53.26,53.26,0,0,1-6.23-1,39.06,39.06,0,0,1-9-3.22,5.3,5.3,0,0,0-1.91-.59,4.89,4.89,0,0,0-.54,0,5.45,5.45,0,0,0-4.86,3.09,5.74,5.74,0,0,0,2.31,7.6A48.54,48.54,0,0,0,219,70.82a57.76,57.76,0,0,0,5.89.93l.13.14ZM236,20.09a12.81,12.81,0,0,0-8.06,2.85l-5.65,4.58A12.79,12.79,0,0,0,220,45.08l.13.15a3,3,0,0,1,.23.27q.54.66,1,1.32l.15.2a12.79,12.79,0,0,0,8.62,4.65,12.39,12.39,0,0,0,1.36.07,12.8,12.8,0,0,0,8-2.84l5.66-4.59a12.85,12.85,0,0,0,1.89-18L246,24.83a12.71,12.71,0,0,0-8.62-4.67A12.21,12.21,0,0,0,236,20.09Z"/><path class="cls-1" d="M236,15c.63,0,1.27,0,1.91.1a17.81,17.81,0,0,1,12.07,6.53l1.19,1.47a18,18,0,0,1-2.64,25.24l-5.65,4.58a18.61,18.61,0,0,1-3.15,2,41.54,41.54,0,0,0,21-11L275,28.24l.06,0,.06-.06a10.45,10.45,0,0,1,3.94-2.56,10.12,10.12,0,0,1,3.54-.63,10.44,10.44,0,0,1,7.56,3.26,11,11,0,0,1-.06,15L275.62,59.08l0,0-.05.05a4,4,0,0,1-.29.29,62.74,62.74,0,0,1-44.11,17.73,63.91,63.91,0,0,1-6.78-.35c-.51,0-1-.12-1.5-.18a27.46,27.46,0,0,1-6.38,7.5L182.75,111.8l1.87,2.31q.42.51.81,1a33,33,0,0,1,3.15,5.16,32.24,32.24,0,0,1,3,17.5,33,33,0,0,1-.91,5h0a32,32,0,0,1-5.32,11.05,32.39,32.39,0,0,1-5.54,5.75L148.7,185.7l-.53.45a15.1,15.1,0,0,1-9.51,3.37,13.82,13.82,0,0,1-1.58-.08A15,15,0,0,1,127,184l-.2-.19a3.43,3.43,0,0,1-.42-.43l-.76-.94a2.32,2.32,0,0,1-.29-.43c-.06-.12-.12-.23-.18-.36a15.67,15.67,0,0,1-2.28-8.26,12.8,12.8,0,0,1,.08-1.63,14.73,14.73,0,0,1,.25-1.64,15.69,15.69,0,0,1,4.91-8.49c.2-.18.39-.36.59-.52l21.83-17.71,3.68-3a9.22,9.22,0,0,0,3.38-8.05,8.6,8.6,0,0,0-1.77-4.45l-1.06-1-6.12-5.7L113.3,162.87a3,3,0,0,1-.75.63L64.33,185.45a14.8,14.8,0,0,1-8,2.33,13.82,13.82,0,0,1-1.58-.08,15.12,15.12,0,0,1-11.18-6.89,15.67,15.67,0,0,1,4.77-21.61l46.31-22.47,1.74-2.31c-24-17.61-33.81-38.74-37.84-53.59-4.53-16.69-2.93-29-2.86-29.54a2.49,2.49,0,0,1,1-1.68,2.4,2.4,0,0,1,1.46-.49,3.42,3.42,0,0,1,.45,0A136,136,0,0,0,79.23,50.6c12.84,0,29.8-1.61,45.24-8.21,14.3-6.12,32.95-8.87,50-8.87a130.52,130.52,0,0,1,23.95,2.06h.78a25.92,25.92,0,0,1,2.64.13H202A27.26,27.26,0,0,1,212.48,39a18.73,18.73,0,0,1,0-3.43A17.83,17.83,0,0,1,219,23.54L224.7,19A17.73,17.73,0,0,1,236,15m-4.4,36.91A12.86,12.86,0,0,0,239.67,49l5.66-4.59a13,13,0,0,0,1.9-18.2l-1.18-1.46A12.89,12.89,0,0,0,237.34,20,12.39,12.39,0,0,0,236,20a12.91,12.91,0,0,0-8.14,2.87l-5.65,4.58a13,13,0,0,0-2.25,17.73c.12.15.25.28.36.42.36.44.7.88,1,1.33l.15.19a12.93,12.93,0,0,0,8.71,4.7,12.44,12.44,0,0,0,1.37.08m.08,8.8a51.47,51.47,0,0,1-5.22-.27h0a51,51,0,0,1-6.2-1,37.94,37.94,0,0,1-9-3.21,5.31,5.31,0,0,0-2-.61l-.55,0a5.58,5.58,0,0,0-5,3.16,5.86,5.86,0,0,0,2.36,7.77A48.7,48.7,0,0,0,219,70.94a56.15,56.15,0,0,0,5.91.93l.14,0c2,.2,4.06.31,6.16.31a58,58,0,0,0,40.62-16.35l.14-.15,14.54-15.9a5.93,5.93,0,0,0,.09-8.16A5.36,5.36,0,0,0,283.21,30a5.25,5.25,0,0,0-.56,0,5.5,5.5,0,0,0-3.93,1.68L264.25,47.43a46.29,46.29,0,0,1-32.62,13.24m-152.3-5a145.64,145.64,0,0,1-18.87-1.18c-.45,10,.68,47.82,39,75.93L129.2,91a19.48,19.48,0,0,1,6.42-11.41c.17-.16.34-.33.53-.48l1.5-1.21,4.43-3.69L144,72.6l.17-.11,37.52-30.75a27.05,27.05,0,0,1,4.22-2.83c-3.69-.31-7.55-.47-11.51-.47-16.31,0-34.23,2.66-48,8.55-16.29,7-33.82,8.68-47.1,8.68M179,107.13l33.7-27.61a20.59,20.59,0,0,0,3.75-4,52.93,52.93,0,0,1-12.72-4.65,10.88,10.88,0,0,1-4.48-14.4,10.63,10.63,0,0,1,9.45-5.93,9.4,9.4,0,0,1,1.06,0,10.33,10.33,0,0,1,3.79,1.17,28.51,28.51,0,0,0,4.86,1.94,21,21,0,0,0-2.72-4.3,21.23,21.23,0,0,0-14.33-7.7h-.11c-.73-.07-1.46-.11-2.18-.11a21.24,21.24,0,0,0-13.52,4.83L152,73.86l.07.09L179,107.13m-21,38h0l-2.58,2.1-23.5,19.09a9.83,9.83,0,0,0-3,6.1,9.73,9.73,0,0,0,1.55,6.41l1,1.19c2.28,2.32,4.75,3.5,7.25,3.5a9.83,9.83,0,0,0,6.16-2.43L176.05,155a27,27,0,0,0,4.2-4.28,26.52,26.52,0,0,0,3.51-26.45,25.77,25.77,0,0,0-3-5.3c-.25-.36-.52-.7-.8-1.05l-1.85-2.28-3.78-4.66L147.41,77.73l-5.94,4.82-2.09,1.73a13.76,13.76,0,0,0-1.59,18.65l9.52,8.93,12.08,11.32.55.52a2.68,2.68,0,0,1,.28.3,14.76,14.76,0,0,1,2.41,4.28,15.1,15.1,0,0,1,.9,4.63,18.48,18.48,0,0,1-.06,2.1v0A14.88,14.88,0,0,1,158,145.1a0,0,0,0,1,0,0M56.3,181.78a9,9,0,0,0,4.87-1.43l47.88-21.74,35.21-41.45-10.72-10a2.75,2.75,0,0,1-.22-.26l-.07,0a19.74,19.74,0,0,1-3.5-6.62L99.1,140.78a2.82,2.82,0,0,1-.78.72L51.56,164.26a9.65,9.65,0,0,0-2.93,13.32,9,9,0,0,0,5.7,4,9.35,9.35,0,0,0,2,.21M236,14.71a17.93,17.93,0,0,0-11.41,4.05l-5.66,4.59a18.09,18.09,0,0,0-6.62,12.23,18.9,18.9,0,0,0-.06,3A27.48,27.48,0,0,0,202,35.46h-.14a26.66,26.66,0,0,0-2.67-.13h-.76a130.34,130.34,0,0,0-24-2.06c-18.61,0-36.86,3.24-50.07,8.89-15.83,6.77-33.28,8.19-45.14,8.19a138.36,138.36,0,0,1-20.58-1.43,2.92,2.92,0,0,0-.5-.05,2.69,2.69,0,0,0-1.61.54,2.78,2.78,0,0,0-1.1,1.85c-.17,1.35-1.5,13.51,2.87,29.63,4,14.69,13.76,35.89,37.72,53.58l-1.55,2.07L48.23,159a15.92,15.92,0,0,0-4.87,22,15.32,15.32,0,0,0,11.37,7,14.17,14.17,0,0,0,1.6.08,15.09,15.09,0,0,0,8.13-2.37l48.19-21.93a3,3,0,0,0,.84-.7l35.19-41.42,5.93,5.53,1.06,1a8.35,8.35,0,0,1,1.69,4.29,8.94,8.94,0,0,1-3.28,7.84l-3.68,3-21.83,17.71a6.26,6.26,0,0,0-.49.41l-.12.11a16,16,0,0,0-5,8.62c-.11.6-.2,1.14-.25,1.67a13.18,13.18,0,0,0-.08,1.66A15.91,15.91,0,0,0,125,181.8a2,2,0,0,0,.18.36,2.18,2.18,0,0,0,.31.46l.75.94a4,4,0,0,0,.46.46l.09.09a.6.6,0,0,1,.08.08,15.14,15.14,0,0,0,10.22,5.5,14.35,14.35,0,0,0,1.61.08,15.43,15.43,0,0,0,9.67-3.43l.53-.45L180,159.78A32.54,32.54,0,0,0,185.6,154,32.16,32.16,0,0,0,191,142.86a33.5,33.5,0,0,0,.92-5,32.7,32.7,0,0,0-3.07-17.64,33.78,33.78,0,0,0-3.18-5.2c-.21-.3-.5-.68-.82-1.07l-1.71-2.11,33.53-27.47A27.7,27.7,0,0,0,223,76.93l.33,0c.33,0,.67.09,1,.12a64,64,0,0,0,6.81.35,63,63,0,0,0,44.28-17.8l.31-.3,0,0,.05,0L290.31,43.4A11.29,11.29,0,0,0,290.37,28a10.62,10.62,0,0,0-6.62-3.27,10.54,10.54,0,0,0-4.74.58A10.79,10.79,0,0,0,275,28l-.06.05-.05,0L260.5,43.76a41.61,41.61,0,0,1-19.3,10.58A18,18,0,0,0,243,53.07l5.65-4.58a18.22,18.22,0,0,0,2.68-25.59l-1.2-1.46A18.43,18.43,0,0,0,236,14.71Zm-4.4,36.91c-.45,0-.9,0-1.34-.07a12.64,12.64,0,0,1-8.54-4.61l-.15-.19c-.33-.45-.66-.89-1-1.33l-.25-.29-.13-.14a12.67,12.67,0,0,1,2.23-17.37L228,23a12.7,12.7,0,0,1,8-2.82,12.16,12.16,0,0,1,1.34.07,12.59,12.59,0,0,1,8.54,4.62L247,26.37a12.72,12.72,0,0,1-1.87,17.85l-5.65,4.58a12.67,12.67,0,0,1-8,2.82Zm.08,9.3a46.76,46.76,0,0,0,32.79-13.31l14.49-15.82a5.18,5.18,0,0,1,3.74-1.6,4.58,4.58,0,0,1,.53,0,5.12,5.12,0,0,1,3.2,1.59,5.69,5.69,0,0,1-.09,7.82l-14.54,15.9-.07.07-.09.09A57.59,57.59,0,0,1,231.17,72c-2,0-4.1-.11-6.13-.31h-.15A55.7,55.7,0,0,1,219,70.7a48.6,48.6,0,0,1-12.84-4.48,5.59,5.59,0,0,1-2.25-7.43,5.28,5.28,0,0,1,4.74-3l.52,0a5.22,5.22,0,0,1,1.87.58,39.32,39.32,0,0,0,9.08,3.23,51.94,51.94,0,0,0,6.23,1,52.11,52.11,0,0,0,5.27.27Zm-152.3-5c12.26,0,30.39-1.51,47.2-8.7,12.67-5.42,30.13-8.53,47.9-8.53,3.64,0,7.23.14,10.68.4a27.94,27.94,0,0,0-3.54,2.46L144.05,72.29l-.06,0-.12.08-2,1.63-4.43,3.68L136,78.93l-.37.34-.17.16A19.63,19.63,0,0,0,129,90.92L99.37,130.07C61.94,102.46,60.26,65.82,60.7,54.78a149.62,149.62,0,0,0,18.63,1.14Zm73,18,33.34-27.31A20.83,20.83,0,0,1,199,41.81c.72,0,1.44,0,2.15.11h.11a21,21,0,0,1,14.17,7.61,20,20,0,0,1,2.42,3.72,27.3,27.3,0,0,1-4.26-1.74,10.57,10.57,0,0,0-3.88-1.2c-.35,0-.72,0-1.08,0A10.89,10.89,0,0,0,199,56.34a11.14,11.14,0,0,0,4.58,14.74A53.91,53.91,0,0,0,216,75.66a20.64,20.64,0,0,1-3.48,3.67L179,106.78,152.34,73.9Zm5.9,71.33a15.11,15.11,0,0,0,5.47-10.16,16.49,16.49,0,0,0,.07-2.16,15.21,15.21,0,0,0-.91-4.72,15,15,0,0,0-2.46-4.35,3.2,3.2,0,0,0-.31-.32l-.54-.52-12.08-11.32L138,102.74a13.48,13.48,0,0,1,1.58-18.27l2.08-1.73,5.74-4.66,26.77,33,3.77,4.65,1.85,2.29c.34.42.58.73.8,1a25.56,25.56,0,0,1,3,5.25,26.13,26.13,0,0,1-7.63,30.43l-31.17,26.12a9.56,9.56,0,0,1-6,2.37c-2.47,0-4.85-1.16-7.07-3.43l-1-1.17a9.47,9.47,0,0,1-1.49-6.22,9.6,9.6,0,0,1,2.92-6l23.47-19.08,2.52-2h.13l0-.13ZM56.3,181.53a8.89,8.89,0,0,1-1.92-.21,8.77,8.77,0,0,1-5.54-3.87,9.4,9.4,0,0,1,2.86-13l46.73-22.74a3.06,3.06,0,0,0,.87-.8l30.36-40.16a19.51,19.51,0,0,0,3.4,6.24l.08.09.23.25,10.55,9.83-35,41.23L61.07,180.12a8.8,8.8,0,0,1-4.77,1.41Z"/><path class="cls-2" d="M99.34,130.52c-38.08-28-39.48-65.27-39-76v-.14l.14,0a147.21,147.21,0,0,0,18.85,1.18h0c12.21,0,30.29-1.51,47-8.67,12.71-5.44,30.23-8.56,48.05-8.56,3.94,0,7.82.15,11.52.46l.42,0L186,39a26.81,26.81,0,0,0-4.2,2.82L144.28,72.59l-.1.06-2,1.67L137.73,78l-1.5,1.21-.34.31-.19.18A19.26,19.26,0,0,0,129.32,91L99.44,130.59Z"/><path class="cls-1" d="M174.43,38.44c4,0,7.82.16,11.51.47a27.05,27.05,0,0,0-4.22,2.83L144.2,72.49l-.17.11-1.95,1.63-4.43,3.69-1.5,1.21c-.19.15-.36.32-.53.48A19.48,19.48,0,0,0,129.2,91l-29.78,39.4C61.14,102.31,60,64.53,60.46,54.49a145.64,145.64,0,0,0,18.87,1.18c13.28,0,30.81-1.71,47.1-8.68,13.77-5.89,31.69-8.55,48-8.55m0-.25v0h0c-17.84,0-35.37,3.13-48.1,8.57-16.73,7.16-34.79,8.66-47,8.66a147.82,147.82,0,0,1-18.84-1.17l-.27,0v.27c-.48,10.78.92,48.14,39.06,76.14l.2.14.15-.19,29.78-39.4,0,0v-.06a19.2,19.2,0,0,1,6.34-11.26l.18-.17.35-.31,1.5-1.21,4.43-3.69,1.95-1.63.05,0,.12-.08,37.52-30.74a26.57,26.57,0,0,1,4.18-2.81l.74-.4-.84-.07c-3.71-.31-7.59-.47-11.53-.47Z"/><path class="cls-3" d="M274.28,183.92a21.82,21.82,0,0,0-6.2.9A29.84,29.84,0,0,0,210.86,194a17.87,17.87,0,0,0-9.9,8.35,13.52,13.52,0,1,0,5.22,23.12A17.92,17.92,0,0,0,229,224a29.84,29.84,0,0,0,29.24-3.5,21.77,21.77,0,1,0,16-36.54Z"/><path class="cls-4" d="M122.42,11.07a7.26,7.26,0,0,0-.93.06A11.75,11.75,0,0,0,110.67,4a11.57,11.57,0,0,0-2.72.32,8.35,8.35,0,0,0-14,5,8.37,8.37,0,1,0,7.72,13.91,11.74,11.74,0,0,0,15.25,2.46,8.36,8.36,0,1,0,5.53-14.63Z"/></g></g></svg>