<svg xmlns="http://www.w3.org/2000/svg" xmlns:xlink="http://www.w3.org/1999/xlink" viewBox="0 0 192.53 192.53"><defs><style>.cls-1,.cls-4,.cls-5{fill:none;}.cls-1,.cls-3,.cls-4,.cls-5{stroke:#1f2c38;}.cls-1,.cls-3,.cls-5{stroke-miterlimit:10;}.cls-1,.cls-3{stroke-width:5px;}.cls-2{fill:url(#linear-gradient);}.cls-3{fill:#fff;}.cls-4{stroke-linecap:round;stroke-linejoin:round;}.cls-4,.cls-5{stroke-width:6px;}</style><linearGradient id="linear-gradient" x1="49.66" y1="125.49" x2="128.67" y2="125.49" gradientTransform="translate(-1.94 -20.19)" gradientUnits="userSpaceOnUse"><stop offset="0" stop-color="#83b755"/><stop offset="0.13" stop-color="#70b26d"/><stop offset="0.41" stop-color="#4aa89a"/><stop offset="0.66" stop-color="#2fa1bb"/><stop offset="0.86" stop-color="#1e9dd0"/><stop offset="1" stop-color="#189bd7"/></linearGradient></defs><title>cP18_iconAsset 69@1x</title><g id="Layer_2" data-name="Layer 2"><g id="stroked"><path class="cls-1" d="M160.37,24.88l-66,.39a7.2,7.2,0,0,0-5.07,2.12L4.62,112a7.22,7.22,0,0,0,0,10.23l65.64,65.64a7.24,7.24,0,0,0,10.23,0l84.65-84.65a7.31,7.31,0,0,0,2.12-5.07l.39-66A7.24,7.24,0,0,0,160.37,24.88Z"/><rect class="cls-2" x="47.72" y="46.55" width="79.01" height="117.5" rx="4.57" transform="translate(100.01 -30.84) rotate(45)"/><circle class="cls-1" cx="146.46" cy="46.07" r="10.61"/><rect class="cls-3" x="158.75" y="-3.87" width="15.92" height="59.38" rx="7.96" transform="translate(67.08 -110.32) rotate(45)"/><line class="cls-4" x1="53.06" y1="109.76" x2="118.21" y2="98.33"/><circle class="cls-5" cx="88.76" cy="79.17" r="12.93"/><circle class="cls-5" cx="84.76" cy="129.76" r="12.93"/></g></g></svg>