<svg xmlns="http://www.w3.org/2000/svg" xmlns:xlink="http://www.w3.org/1999/xlink" viewBox="0 0 270.89 269.81"><defs><style>.cls-1{fill:#1f2c38;}.cls-2{fill:url(#linear-gradient);}.cls-3{fill:url(#linear-gradient-2);}.cls-4{fill:url(#linear-gradient-3);}.cls-5{fill:url(#linear-gradient-4);}</style><linearGradient id="linear-gradient" x1="3192.72" y1="1652.26" x2="3192.72" y2="1632.59" gradientTransform="translate(-3109.57 -2326.15) scale(1 1.47)" gradientUnits="userSpaceOnUse"><stop offset="0" stop-color="#83b755"/><stop offset="0.13" stop-color="#70b26d"/><stop offset="0.41" stop-color="#4aa89a"/><stop offset="0.66" stop-color="#2fa1bb"/><stop offset="0.86" stop-color="#1e9dd0"/><stop offset="1" stop-color="#189bd7"/></linearGradient><linearGradient id="linear-gradient-2" x1="3192.72" y1="1338.23" x2="3192.72" y2="1318.57" gradientTransform="translate(-3012.13 -1495.7) scale(1 1.26)" xlink:href="#linear-gradient"/><linearGradient id="linear-gradient-3" x1="3296.05" y1="663.92" x2="3355.41" y2="604.56" gradientTransform="translate(-2590.33 2112.28) rotate(-45)" xlink:href="#linear-gradient"/><linearGradient id="linear-gradient-4" x1="69.39" y1="137.03" x2="206.05" y2="137.03" gradientTransform="translate(131.92 -55.05) rotate(45)" xlink:href="#linear-gradient"/></defs><title>cP18_iconAsset 72@1x</title><g id="Layer_2" data-name="Layer 2"><g id="outlined"><path class="cls-1" d="M67.7,163.8l35.79,35.79-61,61-35.8-35.8,61-61m0-6.68a4.37,4.37,0,0,0-3.1,1.29L1.28,221.73a4.38,4.38,0,0,0,0,6.19L39.37,266a4.38,4.38,0,0,0,6.19,0l63.32-63.32a4.38,4.38,0,0,0,0-6.19L70.79,158.41a4.33,4.33,0,0,0-3.09-1.29Z"/><path class="cls-1" d="M227.53,6.67l35.8,35.8-61,61L166.51,67.7l61-61m0-6.67a4.36,4.36,0,0,0-3.09,1.28L161.11,64.6a4.39,4.39,0,0,0,0,6.19l38.1,38.09a4.37,4.37,0,0,0,6.18,0l63.33-63.32a4.38,4.38,0,0,0,0-6.19L230.63,1.28A4.4,4.4,0,0,0,227.53,0Z"/><path class="cls-1" d="M218.71,269.81h-.06a3,3,0,0,1,0-6h.06a46.19,46.19,0,0,0,46.18-46.18,3,3,0,0,1,6,0,52.19,52.19,0,0,1-52.18,52.18Z"/><rect class="cls-2" x="62.48" y="67.68" width="41.33" height="28.84" rx="5.42" transform="translate(-33.7 82.84) rotate(-45)"/><path class="cls-1" d="M87.57,65.77l11.9,11.91L78.73,98.42,66.82,86.51,87.57,65.77m0-6.24a5.37,5.37,0,0,0-3.83,1.59L62.17,82.68a5.41,5.41,0,0,0,0,7.66L74.9,103.07a5.41,5.41,0,0,0,7.66,0l21.57-21.56a5.43,5.43,0,0,0,0-7.66L91.39,61.12a5.37,5.37,0,0,0-3.82-1.59Z"/><rect class="cls-3" x="159.92" y="167.13" width="41.33" height="24.8" transform="translate(-74.06 180.28) rotate(-45)"/><path class="cls-1" d="M186.43,164.64l9,9.05-20.74,20.74-9.05-9.05,20.74-20.74m0-8.49L157.2,185.38l17.54,17.53L204,173.69l-17.54-17.54Z"/><path class="cls-4" d="M251.77,181.54a49.18,49.18,0,0,0-69.55,69.54h0l69.55-69.54Z"/><path class="cls-1" d="M217,173.13a42.86,42.86,0,0,1,26,8.7L182.52,242.3A43.18,43.18,0,0,1,217,173.13m0-6a49.18,49.18,0,0,0-34.78,84l69.55-69.54A49,49,0,0,0,217,167.13Z"/><path class="cls-5" d="M115.91,69.72h33a25.65,25.65,0,0,1,25.65,25.65v98.35a0,0,0,0,1,0,0H90.26a0,0,0,0,1,0,0V95.37A25.65,25.65,0,0,1,115.91,69.72Z" transform="translate(-54.36 132.21) rotate(-45)"/><path class="cls-1" d="M118.37,74.7a19.52,19.52,0,0,1,13.9,5.76l65.3,65.3-51.12,51.12-65.31-65.3a19.65,19.65,0,0,1,0-27.78l23.34-23.34a19.49,19.49,0,0,1,13.89-5.76m0-6a25.55,25.55,0,0,0-18.13,7.51L76.9,99.55a25.64,25.64,0,0,0,0,36.27l69.55,69.55,59.6-59.61L136.51,76.21a25.56,25.56,0,0,0-18.14-7.51Z"/><rect class="cls-1" x="69.51" y="105.04" width="76.84" height="6" transform="translate(-44.79 107.96) rotate(-45)"/><rect class="cls-1" x="119.51" y="155.04" width="76.84" height="6" transform="translate(-65.5 157.96) rotate(-45)"/><rect class="cls-1" x="86.36" y="170.33" width="23.23" height="6" transform="translate(-93.86 120.04) rotate(-45)"/><rect class="cls-1" x="161.19" y="95.49" width="23.23" height="6" transform="translate(-19.03 151.04) rotate(-45)"/><path class="cls-1" d="M218,253.37h0a3,3,0,0,1,0-6h0A30.4,30.4,0,0,0,248.44,217a3,3,0,1,1,6,0A36.4,36.4,0,0,1,218,253.37Z"/><path class="cls-1" d="M219.2,235.73h0a3,3,0,0,1,0-6h0a11.59,11.59,0,0,0,11.59-11.59,3,3,0,0,1,6,0,17.58,17.58,0,0,1-17.59,17.59Z"/><rect class="cls-1" x="63.18" y="174.59" width="6" height="55.39" transform="translate(-123.66 106.04) rotate(-45)"/><rect class="cls-1" x="200.51" y="37.26" width="6" height="55.39" transform="translate(13.67 162.93) rotate(-45)"/></g></g></svg>