<svg xmlns="http://www.w3.org/2000/svg" version="1.1" xmlns:xlink="http://www.w3.org/1999/xlink" xmlns:svgjs="http://svgjs.com/svgjs" width="1440" height="560" preserveAspectRatio="none" viewBox="0 0 1440 560"><g mask="url(&quot;#SvgjsMask1000&quot;)" fill="none"><rect width="1440" height="560" x="0" y="0" fill="#0e2a47"></rect><path d="M-81.54 402.85L-81.54 402.85" stroke="#132e65" stroke-width="1.5"></path><path d="M-81.54 402.85L-79.66 533.52" stroke="#132e65" stroke-width="1.5"></path><path d="M-81.54 402.85L74.93 382.46" stroke="#132e65" stroke-width="1.5"></path><path d="M-81.54 402.85L63.65 503.02" stroke="#132e65" stroke-width="1.5"></path><path d="M-81.54 402.85L-74.88 691.65" stroke="#132e65" stroke-width="1.5"></path><path d="M-79.66 533.52L-79.66 533.52" stroke="#132e65" stroke-width="1.5"></path><path d="M-79.66 533.52L63.65 503.02" stroke="#132e65" stroke-width="1.5"></path><path d="M-79.66 533.52L-74.88 691.65" stroke="#132e65" stroke-width="1.5"></path><path d="M-79.66 533.52L84.28 651.05" stroke="#132e65" stroke-width="1.5"></path><path d="M-74.88 691.65L-74.88 691.65" stroke="#132e65" stroke-width="1.5"></path><path d="M-74.88 691.65L84.28 651.05" stroke="#132e65" stroke-width="1.5"></path><path d="M-74.88 691.65L63.65 503.02" stroke="#132e65" stroke-width="1.5"></path><path d="M-74.88 691.65L217.61 676.24" stroke="#132e65" stroke-width="1.5"></path><path d="M-74.88 691.65L223.14 525.34" stroke="#132e65" stroke-width="1.5"></path><path d="M74.93 382.46L74.93 382.46" stroke="#132e65" stroke-width="1.5"></path><path d="M74.93 382.46L63.65 503.02" stroke="#132e65" stroke-width="1.5"></path><path d="M74.93 382.46L231.9 393.01" stroke="#132e65" stroke-width="1.5"></path><path d="M63.65 503.02L63.65 503.02" stroke="#132e65" stroke-width="1.5"></path><path d="M63.65 503.02L84.28 651.05" stroke="#132e65" stroke-width="1.5"></path><path d="M63.65 503.02L223.14 525.34" stroke="#132e65" stroke-width="1.5"></path><path d="M84.28 651.05L84.28 651.05" stroke="#132e65" stroke-width="1.5"></path><path d="M84.28 651.05L217.61 676.24" stroke="#132e65" stroke-width="1.5"></path><path d="M231.9 393.01L231.9 393.01" stroke="#132e65" stroke-width="1.5"></path><path d="M231.9 393.01L344.82 382.26" stroke="#132e65" stroke-width="1.5"></path><path d="M231.9 393.01L223.14 525.34" stroke="#132e65" stroke-width="1.5"></path><path d="M231.9 393.01L360.27 515.06" stroke="#132e65" stroke-width="1.5"></path><path d="M223.14 525.34L223.14 525.34" stroke="#132e65" stroke-width="1.5"></path><path d="M223.14 525.34L360.27 515.06" stroke="#132e65" stroke-width="1.5"></path><path d="M223.14 525.34L217.61 676.24" stroke="#132e65" stroke-width="1.5"></path><path d="M223.14 525.34L84.28 651.05" stroke="#132e65" stroke-width="1.5"></path><path d="M223.14 525.34L344.82 382.26" stroke="#132e65" stroke-width="1.5"></path><path d="M217.61 676.24L217.61 676.24" stroke="#132e65" stroke-width="1.5"></path><path d="M344.82 382.26L344.82 382.26" stroke="#132e65" stroke-width="1.5"></path><path d="M344.82 382.26L360.27 515.06" stroke="#132e65" stroke-width="1.5"></path><path d="M344.82 382.26L74.93 382.46" stroke="#132e65" stroke-width="1.5"></path><path d="M344.82 382.26L559.47 556.54" stroke="#132e65" stroke-width="1.5"></path><path d="M344.82 382.26L63.65 503.02" stroke="#132e65" stroke-width="1.5"></path><path d="M360.27 515.06L360.27 515.06" stroke="#132e65" stroke-width="1.5"></path><path d="M360.27 515.06L396.89 702.96" stroke="#132e65" stroke-width="1.5"></path><path d="M360.27 515.06L559.47 556.54" stroke="#132e65" stroke-width="1.5"></path><path d="M396.89 702.96L396.89 702.96" stroke="#132e65" stroke-width="1.5"></path><path d="M396.89 702.96L545.25 644.72" stroke="#132e65" stroke-width="1.5"></path><path d="M396.89 702.96L217.61 676.24" stroke="#132e65" stroke-width="1.5"></path><path d="M396.89 702.96L559.47 556.54" stroke="#132e65" stroke-width="1.5"></path><path d="M396.89 702.96L640.28 677.79" stroke="#132e65" stroke-width="1.5"></path><path d="M559.47 556.54L559.47 556.54" stroke="#132e65" stroke-width="1.5"></path><path d="M559.47 556.54L545.25 644.72" stroke="#132e65" stroke-width="1.5"></path><path d="M559.47 556.54L640.28 677.79" stroke="#132e65" stroke-width="1.5"></path><path d="M559.47 556.54L703.44 407.6" stroke="#132e65" stroke-width="1.5"></path><path d="M545.25 644.72L545.25 644.72" stroke="#132e65" stroke-width="1.5"></path><path d="M545.25 644.72L640.28 677.79" stroke="#132e65" stroke-width="1.5"></path><path d="M703.44 407.6L703.44 407.6" stroke="#132e65" stroke-width="1.5"></path><path d="M703.44 407.6L815.95 397.95" stroke="#132e65" stroke-width="1.5"></path><path d="M703.44 407.6L809.61 553.22" stroke="#132e65" stroke-width="1.5"></path><path d="M703.44 407.6L858.02 199.35" stroke="#132e65" stroke-width="1.5"></path><path d="M703.44 407.6L957.08 507.55" stroke="#132e65" stroke-width="1.5"></path><path d="M640.28 677.79L640.28 677.79" stroke="#132e65" stroke-width="1.5"></path><path d="M858.02 199.35L858.02 199.35" stroke="#132e65" stroke-width="1.5"></path><path d="M858.02 199.35L955.12 247.05" stroke="#132e65" stroke-width="1.5"></path><path d="M815.95 397.95L815.95 397.95" stroke="#132e65" stroke-width="1.5"></path><path d="M815.95 397.95L809.61 553.22" stroke="#132e65" stroke-width="1.5"></path><path d="M815.95 397.95L957.08 507.55" stroke="#132e65" stroke-width="1.5"></path><path d="M809.61 553.22L809.61 553.22" stroke="#132e65" stroke-width="1.5"></path><path d="M809.61 553.22L821.81 653.34" stroke="#132e65" stroke-width="1.5"></path><path d="M809.61 553.22L957.08 507.55" stroke="#132e65" stroke-width="1.5"></path><path d="M821.81 653.34L821.81 653.34" stroke="#132e65" stroke-width="1.5"></path><path d="M821.81 653.34L961.53 661.11" stroke="#132e65" stroke-width="1.5"></path><path d="M989.6 -52.1L989.6 -52.1" stroke="#132e65" stroke-width="1.5"></path><path d="M989.6 -52.1L1108.18 -58.3" stroke="#132e65" stroke-width="1.5"></path><path d="M989.6 -52.1L984.76 82.47" stroke="#132e65" stroke-width="1.5"></path><path d="M989.6 -52.1L1143.99 73.11" stroke="#132e65" stroke-width="1.5"></path><path d="M984.76 82.47L984.76 82.47" stroke="#132e65" stroke-width="1.5"></path><path d="M984.76 82.47L1143.99 73.11" stroke="#132e65" stroke-width="1.5"></path><path d="M984.76 82.47L955.12 247.05" stroke="#132e65" stroke-width="1.5"></path><path d="M984.76 82.47L858.02 199.35" stroke="#132e65" stroke-width="1.5"></path><path d="M984.76 82.47L1108.18 -58.3" stroke="#132e65" stroke-width="1.5"></path><path d="M955.12 247.05L955.12 247.05" stroke="#132e65" stroke-width="1.5"></path><path d="M955.12 247.05L996.18 362.68" stroke="#132e65" stroke-width="1.5"></path><path d="M955.12 247.05L1115.67 226.6" stroke="#132e65" stroke-width="1.5"></path><path d="M996.18 362.68L996.18 362.68" stroke="#132e65" stroke-width="1.5"></path><path d="M996.18 362.68L957.08 507.55" stroke="#132e65" stroke-width="1.5"></path><path d="M957.08 507.55L957.08 507.55" stroke="#132e65" stroke-width="1.5"></path><path d="M957.08 507.55L961.53 661.11" stroke="#132e65" stroke-width="1.5"></path><path d="M961.53 661.11L961.53 661.11" stroke="#132e65" stroke-width="1.5"></path><path d="M961.53 661.11L1098.08 651.1" stroke="#132e65" stroke-width="1.5"></path><path d="M1108.18 -58.3L1108.18 -58.3" stroke="#132e65" stroke-width="1.5"></path><path d="M1108.18 -58.3L1143.99 73.11" stroke="#132e65" stroke-width="1.5"></path><path d="M1108.18 -58.3L1273.87 -110.12" stroke="#132e65" stroke-width="1.5"></path><path d="M1143.99 73.11L1143.99 73.11" stroke="#132e65" stroke-width="1.5"></path><path d="M1143.99 73.11L1274.29 43.9" stroke="#132e65" stroke-width="1.5"></path><path d="M1143.99 73.11L1115.67 226.6" stroke="#132e65" stroke-width="1.5"></path><path d="M1115.67 226.6L1115.67 226.6" stroke="#132e65" stroke-width="1.5"></path><path d="M1115.67 226.6L1256.11 233.33" stroke="#132e65" stroke-width="1.5"></path><path d="M1115.67 226.6L1161.1 374.64" stroke="#132e65" stroke-width="1.5"></path><path d="M1115.67 226.6L996.18 362.68" stroke="#132e65" stroke-width="1.5"></path><path d="M1161.1 374.64L1161.1 374.64" stroke="#132e65" stroke-width="1.5"></path><path d="M1161.1 374.64L1281.25 388.58" stroke="#132e65" stroke-width="1.5"></path><path d="M1161.1 374.64L1118.46 498.47" stroke="#132e65" stroke-width="1.5"></path><path d="M1118.46 498.47L1118.46 498.47" stroke="#132e65" stroke-width="1.5"></path><path d="M1098.08 651.1L1098.08 651.1" stroke="#132e65" stroke-width="1.5"></path><path d="M1098.08 651.1L1247.68 679.13" stroke="#132e65" stroke-width="1.5"></path><path d="M1098.08 651.1L1118.46 498.47" stroke="#132e65" stroke-width="1.5"></path><path d="M1098.08 651.1L1261.87 540.03" stroke="#132e65" stroke-width="1.5"></path><path d="M1098.08 651.1L957.08 507.55" stroke="#132e65" stroke-width="1.5"></path><path d="M1273.87 -110.12L1273.87 -110.12" stroke="#132e65" stroke-width="1.5"></path><path d="M1273.87 -110.12L1405.13 -66.57" stroke="#132e65" stroke-width="1.5"></path><path d="M1273.87 -110.12L1274.29 43.9" stroke="#132e65" stroke-width="1.5"></path><path d="M1273.87 -110.12L1143.99 73.11" stroke="#132e65" stroke-width="1.5"></path><path d="M1274.29 43.9L1274.29 43.9" stroke="#132e65" stroke-width="1.5"></path><path d="M1274.29 43.9L1423.38 65.21" stroke="#132e65" stroke-width="1.5"></path><path d="M1274.29 43.9L1405.13 -66.57" stroke="#132e65" stroke-width="1.5"></path><path d="M1274.29 43.9L1256.11 233.33" stroke="#132e65" stroke-width="1.5"></path><path d="M1274.29 43.9L1108.18 -58.3" stroke="#132e65" stroke-width="1.5"></path><path d="M1256.11 233.33L1256.11 233.33" stroke="#132e65" stroke-width="1.5"></path><path d="M1256.11 233.33L1281.25 388.58" stroke="#132e65" stroke-width="1.5"></path><path d="M1256.11 233.33L1161.1 374.64" stroke="#132e65" stroke-width="1.5"></path><path d="M1256.11 233.33L1427.58 254.28" stroke="#132e65" stroke-width="1.5"></path><path d="M1281.25 388.58L1281.25 388.58" stroke="#132e65" stroke-width="1.5"></path><path d="M1281.25 388.58L1418.28 354.93" stroke="#132e65" stroke-width="1.5"></path><path d="M1281.25 388.58L1261.87 540.03" stroke="#132e65" stroke-width="1.5"></path><path d="M1261.87 540.03L1261.87 540.03" stroke="#132e65" stroke-width="1.5"></path><path d="M1261.87 540.03L1247.68 679.13" stroke="#132e65" stroke-width="1.5"></path><path d="M1261.87 540.03L1118.46 498.47" stroke="#132e65" stroke-width="1.5"></path><path d="M1261.87 540.03L1413.42 532.15" stroke="#132e65" stroke-width="1.5"></path><path d="M1261.87 540.03L1407.84 661.29" stroke="#132e65" stroke-width="1.5"></path><path d="M1247.68 679.13L1247.68 679.13" stroke="#132e65" stroke-width="1.5"></path><path d="M1247.68 679.13L1407.84 661.29" stroke="#132e65" stroke-width="1.5"></path><path d="M1247.68 679.13L1413.42 532.15" stroke="#132e65" stroke-width="1.5"></path><path d="M1247.68 679.13L1118.46 498.47" stroke="#132e65" stroke-width="1.5"></path><path d="M1247.68 679.13L961.53 661.11" stroke="#132e65" stroke-width="1.5"></path><path d="M1405.13 -66.57L1405.13 -66.57" stroke="#132e65" stroke-width="1.5"></path><path d="M1405.13 -66.57L1423.38 65.21" stroke="#132e65" stroke-width="1.5"></path><path d="M1405.13 -66.57L1580.3 -42.88" stroke="#132e65" stroke-width="1.5"></path><path d="M1423.38 65.21L1423.38 65.21" stroke="#132e65" stroke-width="1.5"></path><path d="M1423.38 65.21L1558.36 65.46" stroke="#132e65" stroke-width="1.5"></path><path d="M1423.38 65.21L1427.58 254.28" stroke="#132e65" stroke-width="1.5"></path><path d="M1423.38 65.21L1580.3 -42.88" stroke="#132e65" stroke-width="1.5"></path><path d="M1423.38 65.21L1583.41 195.53" stroke="#132e65" stroke-width="1.5"></path><path d="M1427.58 254.28L1427.58 254.28" stroke="#132e65" stroke-width="1.5"></path><path d="M1427.58 254.28L1418.28 354.93" stroke="#132e65" stroke-width="1.5"></path><path d="M1427.58 254.28L1583.41 195.53" stroke="#132e65" stroke-width="1.5"></path><path d="M1427.58 254.28L1281.25 388.58" stroke="#132e65" stroke-width="1.5"></path><path d="M1427.58 254.28L1602.44 384.07" stroke="#132e65" stroke-width="1.5"></path><path d="M1418.28 354.93L1418.28 354.93" stroke="#132e65" stroke-width="1.5"></path><path d="M1418.28 354.93L1413.42 532.15" stroke="#132e65" stroke-width="1.5"></path><path d="M1418.28 354.93L1602.44 384.07" stroke="#132e65" stroke-width="1.5"></path><path d="M1418.28 354.93L1551.11 491.84" stroke="#132e65" stroke-width="1.5"></path><path d="M1413.42 532.15L1413.42 532.15" stroke="#132e65" stroke-width="1.5"></path><path d="M1413.42 532.15L1407.84 661.29" stroke="#132e65" stroke-width="1.5"></path><path d="M1413.42 532.15L1551.11 491.84" stroke="#132e65" stroke-width="1.5"></path><path d="M1413.42 532.15L1281.25 388.58" stroke="#132e65" stroke-width="1.5"></path><path d="M1407.84 661.29L1407.84 661.29" stroke="#132e65" stroke-width="1.5"></path><path d="M1407.84 661.29L1600.34 661.97" stroke="#132e65" stroke-width="1.5"></path><path d="M1407.84 661.29L1551.11 491.84" stroke="#132e65" stroke-width="1.5"></path><path d="M1407.84 661.29L1281.25 388.58" stroke="#132e65" stroke-width="1.5"></path><path d="M1580.3 -42.88L1580.3 -42.88" stroke="#132e65" stroke-width="1.5"></path><path d="M1580.3 -42.88L1558.36 65.46" stroke="#132e65" stroke-width="1.5"></path><path d="M1558.36 65.46L1558.36 65.46" stroke="#132e65" stroke-width="1.5"></path><path d="M1583.41 195.53L1583.41 195.53" stroke="#132e65" stroke-width="1.5"></path><path d="M1583.41 195.53L1558.36 65.46" stroke="#132e65" stroke-width="1.5"></path><path d="M1583.41 195.53L1602.44 384.07" stroke="#132e65" stroke-width="1.5"></path><path d="M1583.41 195.53L1418.28 354.93" stroke="#132e65" stroke-width="1.5"></path><path d="M1602.44 384.07L1602.44 384.07" stroke="#132e65" stroke-width="1.5"></path><path d="M1602.44 384.07L1551.11 491.84" stroke="#132e65" stroke-width="1.5"></path><path d="M1551.11 491.84L1551.11 491.84" stroke="#132e65" stroke-width="1.5"></path><path d="M1600.34 661.97L1600.34 661.97" stroke="#132e65" stroke-width="1.5"></path><path d="M1600.34 661.97L1551.11 491.84" stroke="#132e65" stroke-width="1.5"></path><circle r="5" cx="-81.54" cy="402.85" fill="#132e65"></circle><circle r="5" cx="-79.66" cy="533.52" fill="#132e65"></circle><circle r="5" cx="-74.88" cy="691.65" fill="#132e65"></circle><circle r="5" cx="74.93" cy="382.46" fill="#132e65"></circle><circle r="5" cx="63.65" cy="503.02" fill="#132e65"></circle><circle r="5" cx="84.28" cy="651.05" fill="#132e65"></circle><circle r="5" cx="231.9" cy="393.01" fill="#132e65"></circle><circle r="5" cx="223.14" cy="525.34" fill="#132e65"></circle><circle r="5" cx="217.61" cy="676.24" fill="#132e65"></circle><circle r="5" cx="344.82" cy="382.26" fill="#132e65"></circle><circle r="5" cx="360.27" cy="515.06" fill="#132e65"></circle><circle r="5" cx="396.89" cy="702.96" fill="#132e65"></circle><circle r="5" cx="559.47" cy="556.54" fill="#132e65"></circle><circle r="5" cx="545.25" cy="644.72" fill="#132e65"></circle><circle r="5" cx="703.44" cy="407.6" fill="#132e65"></circle><circle r="5" cx="640.28" cy="677.79" fill="#132e65"></circle><circle r="5" cx="858.02" cy="199.35" fill="#132e65"></circle><circle r="5" cx="815.95" cy="397.95" fill="#132e65"></circle><circle r="5" cx="809.61" cy="553.22" fill="#132e65"></circle><circle r="5" cx="821.81" cy="653.34" fill="#132e65"></circle><circle r="5" cx="989.6" cy="-52.1" fill="#132e65"></circle><circle r="5" cx="984.76" cy="82.47" fill="#132e65"></circle><circle r="5" cx="955.12" cy="247.05" fill="#132e65"></circle><circle r="5" cx="996.18" cy="362.68" fill="#132e65"></circle><circle r="5" cx="957.08" cy="507.55" fill="#132e65"></circle><circle r="5" cx="961.53" cy="661.11" fill="#132e65"></circle><circle r="5" cx="1108.18" cy="-58.3" fill="#132e65"></circle><circle r="5" cx="1143.99" cy="73.11" fill="#132e65"></circle><circle r="5" cx="1115.67" cy="226.6" fill="#132e65"></circle><circle r="5" cx="1161.1" cy="374.64" fill="#132e65"></circle><circle r="5" cx="1118.46" cy="498.47" fill="#132e65"></circle><circle r="5" cx="1098.08" cy="651.1" fill="#132e65"></circle><circle r="5" cx="1273.87" cy="-110.12" fill="#132e65"></circle><circle r="5" cx="1274.29" cy="43.9" fill="#132e65"></circle><circle r="5" cx="1256.11" cy="233.33" fill="#132e65"></circle><circle r="5" cx="1281.25" cy="388.58" fill="#132e65"></circle><circle r="5" cx="1261.87" cy="540.03" fill="#132e65"></circle><circle r="5" cx="1247.68" cy="679.13" fill="#132e65"></circle><circle r="5" cx="1405.13" cy="-66.57" fill="#132e65"></circle><circle r="5" cx="1423.38" cy="65.21" fill="#132e65"></circle><circle r="5" cx="1427.58" cy="254.28" fill="#132e65"></circle><circle r="5" cx="1418.28" cy="354.93" fill="#132e65"></circle><circle r="5" cx="1413.42" cy="532.15" fill="#132e65"></circle><circle r="5" cx="1407.84" cy="661.29" fill="#132e65"></circle><circle r="5" cx="1580.3" cy="-42.88" fill="#132e65"></circle><circle r="5" cx="1558.36" cy="65.46" fill="#132e65"></circle><circle r="5" cx="1583.41" cy="195.53" fill="#132e65"></circle><circle r="5" cx="1602.44" cy="384.07" fill="#132e65"></circle><circle r="5" cx="1551.11" cy="491.84" fill="#132e65"></circle><circle r="5" cx="1600.34" cy="661.97" fill="#132e65"></circle><path d="M-110.72 660.26L-110.72 660.26" stroke="hsl(228.5, 77.2%, 51.5%)" stroke-width="1.5"></path><path d="M-110.72 660.26L-41.98 489.26" stroke="hsl(228.5, 77.2%, 51.5%)" stroke-width="1.5"></path><path d="M-110.72 660.26L73.16 639.74" stroke="hsl(228.5, 77.2%, 51.5%)" stroke-width="1.5"></path><path d="M-110.72 660.26L68.13 490.39" stroke="hsl(228.5, 77.2%, 51.5%)" stroke-width="1.5"></path><path d="M-110.72 660.26L245.39 676.7" stroke="hsl(228.5, 77.2%, 51.5%)" stroke-width="1.5"></path><path d="M-110.72 660.26L243.72 542.83" stroke="hsl(228.5, 77.2%, 51.5%)" stroke-width="1.5"></path><path d="M-110.72 660.26L386.45 658.74" stroke="hsl(228.5, 77.2%, 51.5%)" stroke-width="1.5"></path><path d="M73.16 639.74L73.16 639.74" stroke="hsl(228.5, 77.2%, 51.5%)" stroke-width="1.5"></path><path d="M73.16 639.74L68.13 490.39" stroke="hsl(228.5, 77.2%, 51.5%)" stroke-width="1.5"></path><path d="M73.16 639.74L245.39 676.7" stroke="hsl(228.5, 77.2%, 51.5%)" stroke-width="1.5"></path><path d="M73.16 639.74L-41.98 489.26" stroke="hsl(228.5, 77.2%, 51.5%)" stroke-width="1.5"></path><path d="M379.59 513.44L379.59 513.44" stroke="hsl(228.5, 77.2%, 51.5%)" stroke-width="1.5"></path><path d="M379.59 513.44L498.01 548.95" stroke="hsl(228.5, 77.2%, 51.5%)" stroke-width="1.5"></path><path d="M379.59 513.44L243.72 542.83" stroke="hsl(228.5, 77.2%, 51.5%)" stroke-width="1.5"></path><path d="M379.59 513.44L386.45 658.74" stroke="hsl(228.5, 77.2%, 51.5%)" stroke-width="1.5"></path><path d="M379.59 513.44L245.39 676.7" stroke="hsl(228.5, 77.2%, 51.5%)" stroke-width="1.5"></path><path d="M379.59 513.44L543.8 711.02" stroke="hsl(228.5, 77.2%, 51.5%)" stroke-width="1.5"></path><path d="M379.59 513.44L670.3 534.16" stroke="hsl(228.5, 77.2%, 51.5%)" stroke-width="1.5"></path><path d="M498.01 548.95L498.01 548.95" stroke="hsl(228.5, 77.2%, 51.5%)" stroke-width="1.5"></path><path d="M498.01 548.95L386.45 658.74" stroke="hsl(228.5, 77.2%, 51.5%)" stroke-width="1.5"></path><path d="M498.01 548.95L543.8 711.02" stroke="hsl(228.5, 77.2%, 51.5%)" stroke-width="1.5"></path><path d="M498.01 548.95L670.3 534.16" stroke="hsl(228.5, 77.2%, 51.5%)" stroke-width="1.5"></path><path d="M498.01 548.95L648.65 665.18" stroke="hsl(228.5, 77.2%, 51.5%)" stroke-width="1.5"></path><path d="M498.01 548.95L243.72 542.83" stroke="hsl(228.5, 77.2%, 51.5%)" stroke-width="1.5"></path><path d="M648.65 665.18L648.65 665.18" stroke="hsl(228.5, 77.2%, 51.5%)" stroke-width="1.5"></path><path d="M648.65 665.18L543.8 711.02" stroke="hsl(228.5, 77.2%, 51.5%)" stroke-width="1.5"></path><path d="M648.65 665.18L670.3 534.16" stroke="hsl(228.5, 77.2%, 51.5%)" stroke-width="1.5"></path><path d="M648.65 665.18L791.93 702.4" stroke="hsl(228.5, 77.2%, 51.5%)" stroke-width="1.5"></path><path d="M648.65 665.18L836.93 507.54" stroke="hsl(228.5, 77.2%, 51.5%)" stroke-width="1.5"></path><path d="M648.65 665.18L386.45 658.74" stroke="hsl(228.5, 77.2%, 51.5%)" stroke-width="1.5"></path><path d="M982.45 377.85L982.45 377.85" stroke="hsl(228.5, 77.2%, 51.5%)" stroke-width="1.5"></path><path d="M982.45 377.85L861.66 404.52" stroke="hsl(228.5, 77.2%, 51.5%)" stroke-width="1.5"></path><path d="M982.45 377.85L978.03 536.76" stroke="hsl(228.5, 77.2%, 51.5%)" stroke-width="1.5"></path><path d="M982.45 377.85L1157.2 367.79" stroke="hsl(228.5, 77.2%, 51.5%)" stroke-width="1.5"></path><path d="M982.45 377.85L836.93 507.54" stroke="hsl(228.5, 77.2%, 51.5%)" stroke-width="1.5"></path><path d="M997.83 655.62L997.83 655.62" stroke="hsl(228.5, 77.2%, 51.5%)" stroke-width="1.5"></path><path d="M997.83 655.62L978.03 536.76" stroke="hsl(228.5, 77.2%, 51.5%)" stroke-width="1.5"></path><path d="M997.83 655.62L1107.15 546.48" stroke="hsl(228.5, 77.2%, 51.5%)" stroke-width="1.5"></path><path d="M997.83 655.62L791.93 702.4" stroke="hsl(228.5, 77.2%, 51.5%)" stroke-width="1.5"></path><path d="M997.83 655.62L836.93 507.54" stroke="hsl(228.5, 77.2%, 51.5%)" stroke-width="1.5"></path><path d="M997.83 655.62L982.45 377.85" stroke="hsl(228.5, 77.2%, 51.5%)" stroke-width="1.5"></path><path d="M997.83 655.62L1276.09 668.88" stroke="hsl(228.5, 77.2%, 51.5%)" stroke-width="1.5"></path><path d="M1157.2 367.79L1157.2 367.79" stroke="hsl(228.5, 77.2%, 51.5%)" stroke-width="1.5"></path><path d="M1157.2 367.79L1256.49 409.18" stroke="hsl(228.5, 77.2%, 51.5%)" stroke-width="1.5"></path><path d="M1157.2 367.79L1291.17 243.64" stroke="hsl(228.5, 77.2%, 51.5%)" stroke-width="1.5"></path><path d="M1157.2 367.79L1107.15 546.48" stroke="hsl(228.5, 77.2%, 51.5%)" stroke-width="1.5"></path><path d="M1157.2 367.79L1302.86 533.53" stroke="hsl(228.5, 77.2%, 51.5%)" stroke-width="1.5"></path><path d="M1157.2 367.79L978.03 536.76" stroke="hsl(228.5, 77.2%, 51.5%)" stroke-width="1.5"></path><path d="M1240.84 -60.66L1240.84 -60.66" stroke="hsl(228.5, 77.2%, 51.5%)" stroke-width="1.5"></path><path d="M1240.84 -60.66L1257.4 48.73" stroke="hsl(228.5, 77.2%, 51.5%)" stroke-width="1.5"></path><path d="M1240.84 -60.66L1446.5 -96.5" stroke="hsl(228.5, 77.2%, 51.5%)" stroke-width="1.5"></path><path d="M1240.84 -60.66L1453.86 109.32" stroke="hsl(228.5, 77.2%, 51.5%)" stroke-width="1.5"></path><path d="M1240.84 -60.66L1291.17 243.64" stroke="hsl(228.5, 77.2%, 51.5%)" stroke-width="1.5"></path><path d="M1444.16 208.07L1444.16 208.07" stroke="hsl(228.5, 77.2%, 51.5%)" stroke-width="1.5"></path><path d="M1444.16 208.07L1453.86 109.32" stroke="hsl(228.5, 77.2%, 51.5%)" stroke-width="1.5"></path><path d="M1444.16 208.07L1574.91 235.56" stroke="hsl(228.5, 77.2%, 51.5%)" stroke-width="1.5"></path><path d="M1444.16 208.07L1291.17 243.64" stroke="hsl(228.5, 77.2%, 51.5%)" stroke-width="1.5"></path><path d="M1444.16 208.07L1546.4 49.17" stroke="hsl(228.5, 77.2%, 51.5%)" stroke-width="1.5"></path><path d="M1448.37 642.02L1448.37 642.02" stroke="hsl(228.5, 77.2%, 51.5%)" stroke-width="1.5"></path><path d="M1448.37 642.02L1596.19 697.31" stroke="hsl(228.5, 77.2%, 51.5%)" stroke-width="1.5"></path><path d="M1448.37 642.02L1276.09 668.88" stroke="hsl(228.5, 77.2%, 51.5%)" stroke-width="1.5"></path><path d="M1448.37 642.02L1597.45 549.08" stroke="hsl(228.5, 77.2%, 51.5%)" stroke-width="1.5"></path><path d="M1550.31 368.32L1550.31 368.32" stroke="hsl(228.5, 77.2%, 51.5%)" stroke-width="1.5"></path><path d="M1550.31 368.32L1448.23 411.16" stroke="hsl(228.5, 77.2%, 51.5%)" stroke-width="1.5"></path><path d="M1550.31 368.32L1574.91 235.56" stroke="hsl(228.5, 77.2%, 51.5%)" stroke-width="1.5"></path><path d="M1550.31 368.32L1597.45 549.08" stroke="hsl(228.5, 77.2%, 51.5%)" stroke-width="1.5"></path><path d="M1550.31 368.32L1444.16 208.07" stroke="hsl(228.5, 77.2%, 51.5%)" stroke-width="1.5"></path><path d="M1550.31 368.32L1453.86 109.32" stroke="hsl(228.5, 77.2%, 51.5%)" stroke-width="1.5"></path><path d="M-41.98 489.26L-41.98 489.26" stroke="hsl(228.5, 77.2%, 51.5%)" stroke-width="1.5"></path><path d="M-41.98 489.26L68.13 490.39" stroke="hsl(228.5, 77.2%, 51.5%)" stroke-width="1.5"></path><path d="M68.13 490.39L68.13 490.39" stroke="hsl(228.5, 77.2%, 51.5%)" stroke-width="1.5"></path><path d="M68.13 490.39L243.72 542.83" stroke="hsl(228.5, 77.2%, 51.5%)" stroke-width="1.5"></path><path d="M243.72 542.83L243.72 542.83" stroke="hsl(228.5, 77.2%, 51.5%)" stroke-width="1.5"></path><path d="M243.72 542.83L245.39 676.7" stroke="hsl(228.5, 77.2%, 51.5%)" stroke-width="1.5"></path><path d="M243.72 542.83L386.45 658.74" stroke="hsl(228.5, 77.2%, 51.5%)" stroke-width="1.5"></path><path d="M245.39 676.7L245.39 676.7" stroke="hsl(228.5, 77.2%, 51.5%)" stroke-width="1.5"></path><path d="M245.39 676.7L386.45 658.74" stroke="hsl(228.5, 77.2%, 51.5%)" stroke-width="1.5"></path><path d="M386.45 658.74L386.45 658.74" stroke="hsl(228.5, 77.2%, 51.5%)" stroke-width="1.5"></path><path d="M386.45 658.74L543.8 711.02" stroke="hsl(228.5, 77.2%, 51.5%)" stroke-width="1.5"></path><path d="M543.8 711.02L543.8 711.02" stroke="hsl(228.5, 77.2%, 51.5%)" stroke-width="1.5"></path><path d="M701.39 392.98L701.39 392.98" stroke="hsl(228.5, 77.2%, 51.5%)" stroke-width="1.5"></path><path d="M701.39 392.98L670.3 534.16" stroke="hsl(228.5, 77.2%, 51.5%)" stroke-width="1.5"></path><path d="M670.3 534.16L670.3 534.16" stroke="hsl(228.5, 77.2%, 51.5%)" stroke-width="1.5"></path><path d="M670.3 534.16L836.93 507.54" stroke="hsl(228.5, 77.2%, 51.5%)" stroke-width="1.5"></path><path d="M861.66 404.52L861.66 404.52" stroke="hsl(228.5, 77.2%, 51.5%)" stroke-width="1.5"></path><path d="M861.66 404.52L836.93 507.54" stroke="hsl(228.5, 77.2%, 51.5%)" stroke-width="1.5"></path><path d="M861.66 404.52L701.39 392.98" stroke="hsl(228.5, 77.2%, 51.5%)" stroke-width="1.5"></path><path d="M861.66 404.52L978.03 536.76" stroke="hsl(228.5, 77.2%, 51.5%)" stroke-width="1.5"></path><path d="M836.93 507.54L836.93 507.54" stroke="hsl(228.5, 77.2%, 51.5%)" stroke-width="1.5"></path><path d="M836.93 507.54L978.03 536.76" stroke="hsl(228.5, 77.2%, 51.5%)" stroke-width="1.5"></path><path d="M836.93 507.54L701.39 392.98" stroke="hsl(228.5, 77.2%, 51.5%)" stroke-width="1.5"></path><path d="M836.93 507.54L791.93 702.4" stroke="hsl(228.5, 77.2%, 51.5%)" stroke-width="1.5"></path><path d="M791.93 702.4L791.93 702.4" stroke="hsl(228.5, 77.2%, 51.5%)" stroke-width="1.5"></path><path d="M978.03 536.76L978.03 536.76" stroke="hsl(228.5, 77.2%, 51.5%)" stroke-width="1.5"></path><path d="M978.03 536.76L1107.15 546.48" stroke="hsl(228.5, 77.2%, 51.5%)" stroke-width="1.5"></path><path d="M1107.15 546.48L1107.15 546.48" stroke="hsl(228.5, 77.2%, 51.5%)" stroke-width="1.5"></path><path d="M1107.15 546.48L1302.86 533.53" stroke="hsl(228.5, 77.2%, 51.5%)" stroke-width="1.5"></path><path d="M1107.15 546.48L1256.49 409.18" stroke="hsl(228.5, 77.2%, 51.5%)" stroke-width="1.5"></path><path d="M1257.4 48.73L1257.4 48.73" stroke="hsl(228.5, 77.2%, 51.5%)" stroke-width="1.5"></path><path d="M1257.4 48.73L1291.17 243.64" stroke="hsl(228.5, 77.2%, 51.5%)" stroke-width="1.5"></path><path d="M1257.4 48.73L1453.86 109.32" stroke="hsl(228.5, 77.2%, 51.5%)" stroke-width="1.5"></path><path d="M1257.4 48.73L1446.5 -96.5" stroke="hsl(228.5, 77.2%, 51.5%)" stroke-width="1.5"></path><path d="M1257.4 48.73L1444.16 208.07" stroke="hsl(228.5, 77.2%, 51.5%)" stroke-width="1.5"></path><path d="M1257.4 48.73L1546.4 49.17" stroke="hsl(228.5, 77.2%, 51.5%)" stroke-width="1.5"></path><path d="M1291.17 243.64L1291.17 243.64" stroke="hsl(228.5, 77.2%, 51.5%)" stroke-width="1.5"></path><path d="M1291.17 243.64L1256.49 409.18" stroke="hsl(228.5, 77.2%, 51.5%)" stroke-width="1.5"></path><path d="M1291.17 243.64L1453.86 109.32" stroke="hsl(228.5, 77.2%, 51.5%)" stroke-width="1.5"></path><path d="M1256.49 409.18L1256.49 409.18" stroke="hsl(228.5, 77.2%, 51.5%)" stroke-width="1.5"></path><path d="M1256.49 409.18L1302.86 533.53" stroke="hsl(228.5, 77.2%, 51.5%)" stroke-width="1.5"></path><path d="M1256.49 409.18L1448.23 411.16" stroke="hsl(228.5, 77.2%, 51.5%)" stroke-width="1.5"></path><path d="M1302.86 533.53L1302.86 533.53" stroke="hsl(228.5, 77.2%, 51.5%)" stroke-width="1.5"></path><path d="M1302.86 533.53L1276.09 668.88" stroke="hsl(228.5, 77.2%, 51.5%)" stroke-width="1.5"></path><path d="M1276.09 668.88L1276.09 668.88" stroke="hsl(228.5, 77.2%, 51.5%)" stroke-width="1.5"></path><path d="M1446.5 -96.5L1446.5 -96.5" stroke="hsl(228.5, 77.2%, 51.5%)" stroke-width="1.5"></path><path d="M1446.5 -96.5L1583.06 -53.66" stroke="hsl(228.5, 77.2%, 51.5%)" stroke-width="1.5"></path><path d="M1446.5 -96.5L1546.4 49.17" stroke="hsl(228.5, 77.2%, 51.5%)" stroke-width="1.5"></path><path d="M1446.5 -96.5L1453.86 109.32" stroke="hsl(228.5, 77.2%, 51.5%)" stroke-width="1.5"></path><path d="M1453.86 109.32L1453.86 109.32" stroke="hsl(228.5, 77.2%, 51.5%)" stroke-width="1.5"></path><path d="M1453.86 109.32L1546.4 49.17" stroke="hsl(228.5, 77.2%, 51.5%)" stroke-width="1.5"></path><path d="M1448.23 411.16L1448.23 411.16" stroke="hsl(228.5, 77.2%, 51.5%)" stroke-width="1.5"></path><path d="M1448.23 411.16L1302.86 533.53" stroke="hsl(228.5, 77.2%, 51.5%)" stroke-width="1.5"></path><path d="M1448.23 411.16L1444.16 208.07" stroke="hsl(228.5, 77.2%, 51.5%)" stroke-width="1.5"></path><path d="M1448.23 411.16L1597.45 549.08" stroke="hsl(228.5, 77.2%, 51.5%)" stroke-width="1.5"></path><path d="M1448.23 411.16L1574.91 235.56" stroke="hsl(228.5, 77.2%, 51.5%)" stroke-width="1.5"></path><path d="M1583.06 -53.66L1583.06 -53.66" stroke="hsl(228.5, 77.2%, 51.5%)" stroke-width="1.5"></path><path d="M1583.06 -53.66L1546.4 49.17" stroke="hsl(228.5, 77.2%, 51.5%)" stroke-width="1.5"></path><path d="M1583.06 -53.66L1453.86 109.32" stroke="hsl(228.5, 77.2%, 51.5%)" stroke-width="1.5"></path><path d="M1583.06 -53.66L1574.91 235.56" stroke="hsl(228.5, 77.2%, 51.5%)" stroke-width="1.5"></path><path d="M1583.06 -53.66L1444.16 208.07" stroke="hsl(228.5, 77.2%, 51.5%)" stroke-width="1.5"></path><path d="M1546.4 49.17L1546.4 49.17" stroke="hsl(228.5, 77.2%, 51.5%)" stroke-width="1.5"></path><path d="M1574.91 235.56L1574.91 235.56" stroke="hsl(228.5, 77.2%, 51.5%)" stroke-width="1.5"></path><path d="M1574.91 235.56L1453.86 109.32" stroke="hsl(228.5, 77.2%, 51.5%)" stroke-width="1.5"></path><path d="M1597.45 549.08L1597.45 549.08" stroke="hsl(228.5, 77.2%, 51.5%)" stroke-width="1.5"></path><path d="M1597.45 549.08L1596.19 697.31" stroke="hsl(228.5, 77.2%, 51.5%)" stroke-width="1.5"></path><path d="M1596.19 697.31L1596.19 697.31" stroke="hsl(228.5, 77.2%, 51.5%)" stroke-width="1.5"></path><circle r="25" cx="-110.72" cy="660.26" fill="url(#SvgjsRadialGradient1001)"></circle><circle r="25" cx="73.16" cy="639.74" fill="url(#SvgjsRadialGradient1001)"></circle><circle r="25" cx="379.59" cy="513.44" fill="url(#SvgjsRadialGradient1001)"></circle><circle r="25" cx="498.01" cy="548.95" fill="url(#SvgjsRadialGradient1001)"></circle><circle r="25" cx="648.65" cy="665.18" fill="url(#SvgjsRadialGradient1001)"></circle><circle r="25" cx="982.45" cy="377.85" fill="url(#SvgjsRadialGradient1001)"></circle><circle r="25" cx="997.83" cy="655.62" fill="url(#SvgjsRadialGradient1001)"></circle><circle r="25" cx="1157.2" cy="367.79" fill="url(#SvgjsRadialGradient1001)"></circle><circle r="25" cx="1240.84" cy="-60.66" fill="url(#SvgjsRadialGradient1001)"></circle><circle r="25" cx="1444.16" cy="208.07" fill="url(#SvgjsRadialGradient1001)"></circle><circle r="25" cx="1448.37" cy="642.02" fill="url(#SvgjsRadialGradient1001)"></circle><circle r="25" cx="1550.31" cy="368.32" fill="url(#SvgjsRadialGradient1001)"></circle><circle r="5" cx="-41.98" cy="489.26" fill="#8b9ad9"></circle><circle r="5" cx="68.13" cy="490.39" fill="#8b9ad9"></circle><circle r="5" cx="243.72" cy="542.83" fill="#8b9ad9"></circle><circle r="5" cx="245.39" cy="676.7" fill="#8b9ad9"></circle><circle r="5" cx="386.45" cy="658.74" fill="#8b9ad9"></circle><circle r="5" cx="543.8" cy="711.02" fill="#8b9ad9"></circle><circle r="5" cx="701.39" cy="392.98" fill="#8b9ad9"></circle><circle r="5" cx="670.3" cy="534.16" fill="#8b9ad9"></circle><circle r="5" cx="861.66" cy="404.52" fill="#8b9ad9"></circle><circle r="5" cx="836.93" cy="507.54" fill="#8b9ad9"></circle><circle r="5" cx="791.93" cy="702.4" fill="#8b9ad9"></circle><circle r="5" cx="978.03" cy="536.76" fill="#8b9ad9"></circle><circle r="5" cx="1107.15" cy="546.48" fill="#8b9ad9"></circle><circle r="5" cx="1257.4" cy="48.73" fill="#8b9ad9"></circle><circle r="5" cx="1291.17" cy="243.64" fill="#8b9ad9"></circle><circle r="5" cx="1256.49" cy="409.18" fill="#8b9ad9"></circle><circle r="5" cx="1302.86" cy="533.53" fill="#8b9ad9"></circle><circle r="5" cx="1276.09" cy="668.88" fill="#8b9ad9"></circle><circle r="5" cx="1446.5" cy="-96.5" fill="#8b9ad9"></circle><circle r="5" cx="1453.86" cy="109.32" fill="#8b9ad9"></circle><circle r="5" cx="1448.23" cy="411.16" fill="#8b9ad9"></circle><circle r="5" cx="1583.06" cy="-53.66" fill="#8b9ad9"></circle><circle r="5" cx="1546.4" cy="49.17" fill="#8b9ad9"></circle><circle r="5" cx="1574.91" cy="235.56" fill="#8b9ad9"></circle><circle r="5" cx="1597.45" cy="549.08" fill="#8b9ad9"></circle><circle r="5" cx="1596.19" cy="697.31" fill="#8b9ad9"></circle></g><defs><mask id="SvgjsMask1000"><rect width="1440" height="560" fill="#ffffff"></rect></mask><radialGradient id="SvgjsRadialGradient1001"><stop stop-color="#ffffff" offset="0.1"></stop><stop stop-color="#1735b3" offset="0.2"></stop><stop stop-color="rgba(23, 53, 179, 0)" offset="1"></stop></radialGradient></defs></svg>