<svg xmlns="http://www.w3.org/2000/svg" xmlns:xlink="http://www.w3.org/1999/xlink" viewBox="0 0 338.01 233.87"><defs><style>.cls-1{fill:#1f2c38;}.cls-2,.cls-4{fill:none;stroke:#1f2c38;stroke-linecap:round;stroke-linejoin:round;stroke-width:6px;}.cls-3{fill:url(#linear-gradient);}.cls-4{stroke-dasharray:6 10;}</style><linearGradient id="linear-gradient" x1="36.02" y1="116.94" x2="279.34" y2="116.94" gradientUnits="userSpaceOnUse"><stop offset="0" stop-color="#83b755"/><stop offset="0.13" stop-color="#70b26d"/><stop offset="0.41" stop-color="#4aa89a"/><stop offset="0.66" stop-color="#2fa1bb"/><stop offset="0.86" stop-color="#1e9dd0"/><stop offset="1" stop-color="#189bd7"/></linearGradient></defs><title>cP18_iconAsset 68@1x</title><g id="Layer_2" data-name="Layer 2"><g id="stroked"><path class="cls-1" d="M246.79,6V59H10.91V6H246.79m1-6H9.91a5,5,0,0,0-5,5V60a5,5,0,0,0,5,5H247.79a5,5,0,0,0,5-5V5a5,5,0,0,0-5-5Z"/><line class="cls-2" x1="27.25" y1="32.5" x2="191.57" y2="32.5"/><rect class="cls-3" x="36.02" y="87.44" width="243.32" height="59" rx="2"/><path class="cls-1" d="M276.34,90.44v53H39v-53H276.34m1-6H38a5,5,0,0,0-5,5v55a5,5,0,0,0,5,5H277.34a5,5,0,0,0,5-5v-55a5,5,0,0,0-5-5Z"/><rect class="cls-1" x="36.99" y="84.44" width="27.36" height="65"/><line class="cls-2" x1="81.77" y1="116.94" x2="140.18" y2="116.94"/><line class="cls-2" x1="157.98" y1="116.94" x2="255.8" y2="116.94"/><path class="cls-1" d="M243.32,174.87v53H6v-53H243.32m1-6H5a5,5,0,0,0-5,5v55a5,5,0,0,0,5,5H244.32a5,5,0,0,0,5-5v-55a5,5,0,0,0-5-5Z"/><line class="cls-2" x1="23.28" y1="201.37" x2="38.84" y2="201.37"/><line class="cls-2" x1="62.67" y1="201.37" x2="221.88" y2="201.37"/><path class="cls-4" d="M291.46,30.08a43.55,43.55,0,1,1,0,87.09"/><path class="cls-1" d="M282.54,31.38l8.57,7.84a.81.81,0,0,0,1.36-.6V22.94a.81.81,0,0,0-1.36-.6l-8.57,7.84A.8.8,0,0,0,282.54,31.38Z"/></g></g></svg>