<svg xmlns="http://www.w3.org/2000/svg" xmlns:xlink="http://www.w3.org/1999/xlink" viewBox="0 0 218.52 218.52"><defs><style>.cls-1,.cls-4{fill:none;stroke:#1f2c38;stroke-linecap:round;stroke-width:6px;}.cls-1{stroke-linejoin:round;}.cls-2{fill:url(#linear-gradient);}.cls-3{fill:#1f2c38;}.cls-4{stroke-miterlimit:10;}</style><linearGradient id="linear-gradient" x1="67.91" y1="101.9" x2="157.33" y2="101.9" gradientUnits="userSpaceOnUse"><stop offset="0" stop-color="#83b755"/><stop offset="0.13" stop-color="#70b26d"/><stop offset="0.41" stop-color="#4aa89a"/><stop offset="0.66" stop-color="#2fa1bb"/><stop offset="0.86" stop-color="#1e9dd0"/><stop offset="1" stop-color="#189bd7"/></linearGradient></defs><title>cP18_iconAsset 73@1x</title><g id="Layer_2" data-name="Layer 2"><g id="outlined"><path class="cls-1" d="M170.89,3h22.18a22.45,22.45,0,0,1,22.45,22.45V215.52H88.05"/><path class="cls-1" d="M60.46,215.52h-35A22.45,22.45,0,0,1,3,193.07V25.45A22.45,22.45,0,0,1,25.45,3h92.48"/><line class="cls-1" x1="3" y1="64.5" x2="31.29" y2="64.5"/><line class="cls-1" x1="3" y1="107.78" x2="21.99" y2="107.78"/><polyline class="cls-1" points="215.52 174.32 198.71 174.32 198.71 196.01"/><polyline class="cls-1" points="95.16 215.52 95.16 176.54 160.79 176.54 160.79 151.22 198.4 151.22 198.4 158.15"/><polyline class="cls-1" points="21.99 46.25 31.29 46.25 31.29 3"/><polyline class="cls-1" points="49.89 3.32 49.89 27.65 88.05 27.65 88.05 47.68"/><polyline class="cls-1" points="106.06 3.32 106.06 64.5 49.89 64.5"/><line class="cls-1" x1="68.97" y1="41.96" x2="68.97" y2="64.5"/><line class="cls-1" x1="170.95" y1="3" x2="170.95" y2="87.75"/><polyline class="cls-1" points="201.22 27.96 189.77 27.96 189.77 68.72 215.52 68.72"/><polyline class="cls-1" points="20.2 87.75 40.59 87.75 40.59 139.62 22.49 139.62"/><polygon class="cls-2" points="67.91 178.16 67.91 82.89 131.4 82.89 131.4 49.11 119.41 49.11 138.37 25.64 157.33 49.11 145.79 49.11 145.79 97.28 82.3 97.28 82.3 178.16 67.91 178.16"/><path class="cls-3" d="M141.23,26.87h0m-2.86,3.54,12.68,15.7h-8.26V94.28H79.3v80.88H70.91V85.89H134.4V46.11h-8.71l12.68-15.7m0-8.17a2.28,2.28,0,0,0-1.8.86L116.18,48.33a2.32,2.32,0,0,0,1.8,3.78H128.4V79.89H64.91V181.16H85.3V100.28h63.49V52.11h10a2.32,2.32,0,0,0,1.8-3.78L140.17,23.1a2.28,2.28,0,0,0-1.8-.86Z"/><polyline class="cls-1" points="180.8 168.94 180.8 196.01 95.16 196.01"/><line class="cls-1" x1="21.99" y1="127.1" x2="21.99" y2="190.35"/><polyline class="cls-1" points="21.99 157.1 40.59 157.1 40.59 196.01 60.46 196.01"/><line class="cls-4" x1="41.23" y1="106.4" x2="55.28" y2="106.4"/><polyline class="cls-1" points="99.59 117.83 159.97 117.83 159.97 133.7 198.4 133.7"/><polyline class="cls-1" points="143.43 136.15 143.43 159.1 105.91 159.1 105.91 141.56"/><line class="cls-1" x1="124.67" y1="119.93" x2="124.67" y2="139.62"/><line class="cls-1" x1="189.77" y1="87.75" x2="215.52" y2="87.75"/><polyline class="cls-1" points="183.78 133.7 183.78 106.4 198.71 106.4"/></g></g></svg>